<?xml version="1.0" encoding="UTF-8" standalone="no"?>
<svg xmlns:rdf="http://www.w3.org/1999/02/22-rdf-syntax-ns#" xmlns="http://www.w3.org/2000/svg" xml:space="preserve" height="156.34" width="464.45" viewBox="0 0 464.45 156.34" version="1.1" xmlns:cc="http://creativecommons.org/ns#" xmlns:dc="http://purl.org/dc/elements/1.1/"><metadata><rdf:RDF><cc:Work rdf:about=""><dc:format>image/svg+xml</dc:format><dc:type rdf:resource="http://purl.org/dc/dcmitype/StillImage"/><dc:title/></cc:Work></rdf:RDF></metadata><defs/><g transform="matrix(1.25,0,0,-1.25,-71.727482,178.00831)"><g transform="matrix(1.2710034,0,0,1.2710034,-164.3577,-394.42131)"><path d="m190.73,414.23c0-4.4953-3.6423-8.1376-8.1319-8.1376-4.4944,0-8.1376,3.6423-8.1376,8.1376,0,4.4887,3.6432,8.131,8.1376,8.131,4.4897,0,8.1319-3.6423,8.1319-8.131" style="fill-rule:nonzero;fill:#959699;"/><path d="m211.21,393.84c0-4.533-3.6752-8.2073-8.2205-8.2073-4.5264,0-8.2007,3.6743-8.2007,8.2073,0,4.5387,3.6743,8.2139,8.2007,8.2139,4.5453,0,8.2205-3.6752,8.2205-8.2139" style="fill-rule:nonzero;fill:#959699;"/><path d="m264.26,406.1c-4.4953,0-8.1376,3.6489-8.1376,8.1376s3.6423,8.131,8.1376,8.131c4.4887,0,8.1376-3.6423,8.1376-8.131s-3.6488-8.1376-8.1376-8.1376" style="fill-rule:nonzero;fill:#f89b3b;"/><path d="m243.86,385.62c-4.5255,0-8.2073,3.6809-8.2073,8.2139,0,4.5321,3.6818,8.2073,8.2073,8.2073,4.5406,0,8.2205-3.6752,8.2205-8.2073,0-4.533-3.68-8.2139-8.2205-8.2139" style="fill-rule:nonzero;fill:#f89b3b;"/><path d="m256.12,332.1c0,4.4878,3.6423,8.131,8.1376,8.131,4.4887,0,8.1376-3.6432,8.1376-8.131,0-4.4897-3.6488-8.1385-8.1376-8.1385-4.4953,0-8.1376,3.6489-8.1376,8.1385" style="fill-rule:nonzero;fill:#959699;"/><path d="m235.65,352.49c0,4.5406,3.6809,8.2073,8.2073,8.2073,4.5396,0,8.213-3.6668,8.213-8.2073,0-4.5387-3.6734-8.212-8.213-8.212-4.5264,0-8.2073,3.6734-8.2073,8.212" style="fill-rule:nonzero;fill:#959699;"/><path d="m182.6,340.23c4.4963,0,8.1319-3.6498,8.1319-8.131,0-4.4963-3.6357-8.1385-8.1319-8.1385-4.4944,0-8.1376,3.6423-8.1376,8.1385,0,4.4812,3.6432,8.131,8.1376,8.131" style="fill-rule:nonzero;fill:#959699;"/><path d="m202.99,360.7c4.5387,0,8.2139-3.6734,8.2139-8.2073,0-4.5387-3.6752-8.2139-8.2139-8.2139-4.533,0-8.2139,3.6752-8.2139,8.2139,0,4.534,3.6809,8.2073,8.2139,8.2073" style="fill-rule:nonzero;fill:#959699;"/><path d="m297.42,410.84-5.5175,11.25,4.0399,0,3.6587-7.5971,3.5891,7.5971,3.9526,0-5.5565-11.25,5.8409-11.643-4.047,0-3.9691,8.2686-4.0777-8.2686-3.9455,0,6.0321,11.643z" style="fill-rule:nonzero;fill:#f89b3b;"/><path d="m323.99,401.95c2.1822,0,3.3672,1.4068,3.3672,4.0399,0,2.4667-1.4776,3.8806-3.5879,3.8806h-3.4073v-7.9205h3.628zm-0.74353,10.483c2.2129,0,3.3766,1.4776,3.3766,3.628,0,2.7275-1.6452,3.2716-3.6835,3.2716h-2.5776v-6.8996h2.8845zm-6.5373,9.6519,7.4153,0c3.392,0,6.149-1.5024,6.149-5.5423,0-2.79-1.0893-4.4978-3.366-5.2012v-0.0638c2.4974-0.44258,4.1025-1.9521,4.1025-5.8327,0-3.818-2.7582-6.2528-7.0506-6.2528h-7.2501v22.893z" style="fill-rule:nonzero;fill:#f89b3b;"/><path d="m337.81,408.14-5.9058,13.953,4.0788,0,3.8499-9.8749,3.9455,9.8749,3.8168,0-6.1254-13.953,0-8.9402-3.6599,0,0,8.9402z" style="fill-rule:nonzero;fill:#f89b3b;"/><path d="m367.85,399.2-13.437,0c0,9.9918,9.6353,9.7545,9.6353,16.893,0,1.8801-0.81434,3.4699-2.8538,3.4699-2.7594,0-3.209-2.4667-3.209-4.7976h-3.5112c0,4.5686,1.8907,7.3906,6.7757,7.3906,4.7114,0,6.49-2.7912,6.49-6.1265,0-7.6278-7.4555-8.1022-9.201-13.722h9.3108v-3.1063z" style="fill-rule:nonzero;fill:#f89b3b;"/><path d="m300.65,375.13-2.8231,10.315-0.0555,0-2.8219-10.315,5.7005,0zm-3.8818,11.596,2.063,0,5.4066-18.316-1.7397,0-1.493,5.337-6.411,0-1.4871-5.337-1.7456,0,5.4066,18.316z" style="fill-rule:nonzero;fill:#959699;"/><path d="m306.44,382.03,1.5426,0,0-2.1268,0.0472,0c0.59364,1.5107,1.8577,2.436,3.4474,2.436,0.17232,0,0.35407-0.0248,0.52874-0.072v-1.5402c-0.25256,0.0555-0.50631,0.0779-0.73527,0.0779-1.7007,0-3.2881-1.2416-3.2881-3.8806v-8.5141h-1.5426v13.62z" style="fill-rule:nonzero;fill:#959699;"/><path d="m322.02,372.92c-0.23604-2.901-1.8258-4.8212-4.3397-4.8212-2.8679,0-4.5686,2.0005-4.5686,7.1297,0,4.7185,1.7007,7.1073,4.7044,7.1073,2.5611,0,4.047-1.5567,4.204-4.3562h-1.5402c-0.18175,2.1268-1.028,3.0757-2.6638,3.0757-1.6677,0-3.0591-1.028-3.0591-5.8504,0-5.1304,1.454-5.8256,2.901-5.8256,1.565,0,2.5611,1.1543,2.8219,3.5407h1.5402z" style="fill-rule:nonzero;fill:#959699;"/><path d="m324.54,386.72,1.5414,0,0-6.5927,0.0472,0c0.37885,1.3832,1.7231,2.2058,3.3353,2.2058,2.0713,0,3.4864-1.0752,3.4864-3.6445v-10.284h-1.5414v9.8501c0,1.873-0.75888,2.7983-2.3238,2.7983-1.8022,0-3.0037-1.3844-3.0037-3.4946v-9.1538h-1.5414v18.316z" style="fill-rule:nonzero;fill:#959699;"/><path d="m336.28,382.03,1.5414,0,0-13.62-1.5414,0,0,13.62zm0,4.6961,1.5414,0,0-2.6166-1.5414,0,0,2.6166z" style="fill-rule:nonzero;fill:#959699;"/><path d="m341.72,380.74-1.8742,0,0,1.2805,1.8742,0,0,3.772,1.5402,0,0-3.772,2.4029,0,0-1.2805-2.4029,0,0-9.7782c0-1.0752,0.4591-1.4304,1.4635-1.4304,0.30804,0,0.60782,0.0472,0.93947,0.1499v-1.2805c-0.1735-0.1027-0.56062-0.14989-1.0752-0.14989-2.0713,0-2.8679,0.56178-2.8679,2.3793v10.11z" style="fill-rule:nonzero;fill:#959699;"/><path d="m354.47,376.44c-0.0554,3.3837-0.99493,4.617-2.901,4.617-1.8966,0-2.8455-1.2333-2.8927-4.617h5.7937zm1.5178-3.5182c-0.23604-2.901-1.8246-4.8212-4.394-4.8212-2.8703,0-4.5616,2.0005-4.5616,7.1297,0,4.7185,1.6913,7.1073,4.6878,7.1073,3.0355,0,4.3952-2.0796,4.3952-6.6175v-0.56887h-7.4389v-0.63968c0-3.9207,1.375-5.1304,2.8927-5.1304,1.6204,0,2.6177,1.1543,2.8786,3.5407h1.5402z" style="fill-rule:nonzero;fill:#959699;"/><path d="m366.96,372.92c-0.22895-2.901-1.8187-4.8212-4.3326-4.8212-2.8679,0-4.5686,2.0005-4.5686,7.1297,0,4.7185,1.7007,7.1073,4.7044,7.1073,2.5611,0,4.0458-1.5567,4.1969-4.3562h-1.5331c-0.18293,2.1268-1.0292,3.0757-2.6638,3.0757-1.6677,0-3.0591-1.028-3.0591-5.8504,0-5.1304,1.4623-5.8256,2.901-5.8256,1.565,0,2.5611,1.1543,2.8219,3.5407h1.5331z" style="fill-rule:nonzero;fill:#959699;"/><path d="m370.05,380.74-1.8742,0,0,1.2805,1.8742,0,0,3.772,1.5402,0,0-3.772,2.4112,0,0-1.2805-2.4112,0,0-9.7782c0-1.0752,0.45911-1.4304,1.4552-1.4304,0.31513,0,0.62316,0.0472,0.95599,0.1499v-1.2805c-0.18176-0.1027-0.56061-0.14989-1.0752-0.14989-2.0866,0-2.8762,0.56178-2.8762,2.3793v10.11z" style="fill-rule:nonzero;fill:#959699;"/><path d="m375.89,382.03,1.5484,0,0-9.5964c0-2.2047,0.73528-3.0509,2.3557-3.0509,1.7479,0,2.9812,1.3832,2.9812,3.4852v9.1621h1.5331v-13.62h-1.375v1.8978h-0.0554c-0.7754-1.5189-2.1102-2.2058-3.4864-2.2058-2.0796,0-3.5017,1.0752-3.5017,3.6433v10.284z" style="fill-rule:nonzero;fill:#959699;"/><path d="m387.55,382.03,1.5331,0,0-2.1268,0.0543,0c0.59365,1.5107,1.8518,2.436,3.4321,2.436,0.19002,0,0.36233-0.0248,0.54527-0.072v-1.5402c-0.25256,0.0555-0.51457,0.0779-0.75063,0.0779-1.6924,0-3.281-1.2416-3.281-3.8806v-8.5141h-1.5331v13.62z" style="fill-rule:nonzero;fill:#959699;"/><path d="m401.81,376.44c-0.0555,3.3837-0.99611,4.617-2.8998,4.617-1.8978,0-2.8467-1.2333-2.9022-4.617h5.802zm1.5095-3.5182c-0.22778-2.901-1.8175-4.8212-4.3869-4.8212-2.8691,0-4.5604,2.0005-4.5604,7.1297,0,4.7185,1.6913,7.1073,4.6878,7.1073,3.0355,0,4.394-2.0796,4.394-6.6175v-0.56887h-7.446v-0.63968c0-3.9207,1.3915-5.1304,2.9022-5.1304,1.6122,0,2.6166,1.1543,2.8762,3.5407h1.5331z" style="fill-rule:nonzero;fill:#959699;"/><path d="m412.45,386.72,9.083,0,0-1.3832-7.4472,0,0-6.6718,6.9574,0,0-1.3915-6.9574,0,0-8.8694-1.6358,0,0,18.316z" style="fill-rule:nonzero;fill:#959699;"/><path d="m423.79,382.03,1.5414,0,0-13.62-1.5414,0,0,13.62zm0,4.6961,1.5414,0,0-2.6166-1.5414,0,0,2.6166z" style="fill-rule:nonzero;fill:#959699;"/><path d="m428.67,382.03,1.5402,0,0-2.1268,0.0555,0c0.58421,1.5107,1.8423,2.436,3.4309,2.436,0.18175,0,0.35525-0.0248,0.53701-0.072v-1.5402c-0.25258,0.0555-0.51341,0.0779-0.74237,0.0779-1.6912,0-3.281-1.2416-3.281-3.8806v-8.5141h-1.5402v13.62z" style="fill-rule:nonzero;fill:#959699;"/><path d="m438.22,375.18c-1.9273,0.74354-2.6224,1.873-2.6224,3.2255,0,2.7983,1.7456,3.929,4.0541,3.929,2.5693,0,3.7472-1.3053,3.7472-3.7944v-0.38712h-1.5343v0.38712c0,1.7703-0.82969,2.5139-2.2365,2.5139-1.8022,0-2.4903-0.9489-2.4903-2.3085,0-0.94889,0.30805-1.6924,1.8506-2.2849l2.2283-0.84504c1.8506-0.69633,2.5375-1.9769,2.5375-3.4628,0-2.3321-1.3278-4.0552-4.2051-4.0552-2.79,0-4.1827,1.1543-4.1827,4.2287v0.44258h1.5508v-0.36233c0-2.0017,0.86038-3.0285,2.6083-3.0285,1.637,0,2.6956,0.9253,2.6956,2.4431,0,1.2003-0.48979,1.9686-1.8494,2.5056l-2.1515,0.8533z" style="fill-rule:nonzero;fill:#959699;"/><path d="m446.86,380.74-1.8742,0,0,1.2805,1.8742,0,0,3.772,1.5402,0,0-3.772,2.4112,0,0-1.2805-2.4112,0,0-9.7782c0-1.0752,0.4591-1.4304,1.4635-1.4304,0.30096,0,0.61607,0.0472,0.94772,0.1499v-1.2805c-0.18176-0.1027-0.56061-0.14989-1.0752-0.14989-2.0866,0-2.8762,0.56178-2.8762,2.3793v10.11z" style="fill-rule:nonzero;fill:#959699;"/><text y="-378.86014" x="452.44025" style="font-size:22.1147995px;" transform="scale(1,-1)"><tspan x="452.44025" style="font-size:10.07078362px;font-family:Myriad;writing-mode:lr-tb;fill-rule:nonzero;font-stretch:normal;font-variant:normal;font-weight:normal;fill:#959699;" y="-378.86014">SM</tspan></text>
</g></g></svg>
